<!--Handcrafted by Saleh Riaz Qureshi - www.salehriaz.com - salehriazq@gmail.com - dribbble.com/salehriaz - behance.net/salehriaz - twitter.com/salehriazq - facebook.com/salehriazqureshi - instagram.com/salehriaz

Please use this SVG with attribution to the author i.e Saleh Riaz
-->

<svg xmlns="http://www.w3.org/2000/svg" xmlns:xlink="http://www.w3.org/1999/xlink" viewBox="0 0 139.64 139.64"><defs><style>.cls-1{fill:#5bcbf5;}.cls-2{fill:#fff;opacity:0.1;}.cls-3{clip-path:url(#clip-path);}.cls-4{fill:#257793;}.cls-5{opacity:0.2;}</style><clipPath id="clip-path"><circle class="cls-1" cx="69.82" cy="69.82" r="60.9" transform="translate(-28.55 61.3) rotate(-40.05)"/></clipPath></defs><title>earth</title><g id="Layer_2" data-name="Layer 2"><g id="Layer_1-2" data-name="Layer 1"><g id="earth"><circle class="cls-2" cx="69.82" cy="69.82" r="69.82" transform="translate(-28.91 70.93) rotate(-45.64)"/><circle class="cls-1" cx="69.82" cy="69.82" r="60.9" transform="translate(-28.55 61.3) rotate(-40.05)"/><g class="cls-3"><path class="cls-4" d="M2.63,74.4A52.68,52.68,0,0,1,20.82,34.79s-1.28,4,6.25,2.31,6.3,1.65,6,3.43-4.4.82-7.1.17S15.78,41.92,13,46.8s-5.26,8.9-3.54,9.74,6.33-7.66,9-9.75S21.7,47,20.88,51s.88,6.48,4.68,5.68,7.06-3.38,7-4.85-6.84-5.3.1-7.08S44.86,40.9,44,47.92s-2,15-.16,17.37,5,2.89,4.28,3.78-2.44.5-3.69.21-4.13,1.71-5,3.32-1.6,5.64,1.36,6.31,4.07-1.78,6.66-2.54,7.14,1,7.43,2-2.1,1.48-5.57.09-4.45,2.37-6.53,3.42-3.6,1.88-7.91.37-8.57.73-11.51.25C14.89,81.2,11.94,77.2,9.6,76.24a47.8,47.8,0,0,0-7-1.84Zm0,0"/><path class="cls-4" d="M57.77,68.9s4.64-3.28,8.39-3.28,4.65.46,8.54-1.67,6.92-1.52,7.88,3.9,2.05,14.45,1.68,17.77-1.41,6.72.21,10.31,2.81,5.55,5.66,5.08c0,0,1.11,3.29-3.89,2.13s-6.36-6.46-7.79-9-5.85-9.9-7.92-10.85-6.21.9-9.91-1.64S52.88,71.46,57.77,68.9Zm0,0"/><path class="cls-4" d="M106.07,17.4c1.23,4.3-2.64,5.57-6.63,8.75-5.12,4.08-10.2,3.65-15.86,6-5.25,2.22-7.16,8.17-6.72,13.48.33,3.94,2.09,12,6.18,13.43a15.55,15.55,0,0,0,6.17.48,57.4,57.4,0,0,0,8.91-1c3.36-.73,6.88-2.05,10.12-.89,2.67,1,4.5,3.41,5.84,5.9C117.72,70.39,116,79.75,125,82.09a11.6,11.6,0,0,0,9.61-1.62,75.57,75.57,0,0,0-28.5-63.07Z"/><path class="cls-4" d="M46.65,13.42a7.4,7.4,0,0,0-1.29,3.41c-.07,2.56,2.44,4.54,4,6.18a14.68,14.68,0,0,0,1.81,1.61c8.25,6.11,13-3.14,20-4.63,4.45-1,9,1.43,13.55,1,5.14-.49,7.15-5.71,7.53-10.86q-3.75-2.91-7.75-5.49c-12.81-8.26-30-4.51-37.78,8.61Z"/><path class="cls-4" d="M43.49,125.16a41.14,41.14,0,0,0,22.75,5.65s-1.78-3.78-3.91-4.52-3.6,1.42-4.86.37,1.51-1.65-1-5.85-8.19-6.18-10.29-3.47-2.71,7.82-2.71,7.82Z"/><path class="cls-4" d="M108.53,88.17c1.31.3,2.08-2.07,4.54,1.18s1.59,4.76,3.57,5.77,1,3.73.51,3.85-2.16.74-3.06,1.1-3.37,1.08-4.08-.07-.38-2.07-2-3.21-2-.64-3.28-.73-1.35-1.43-2.7-.3-4,3.82-4.24,2.12a6.14,6.14,0,0,1,.62-3.9c.62-1.57-.56.14.62-1.57s.47-1.71,2-2.29S108.53,88.17,108.53,88.17Z"/><path class="cls-5" d="M123.42,39.39A80.86,80.86,0,0,1,94.54,100.8c-16.43,13.81-40.15,20.53-60,19.44a55.56,55.56,0,0,0,4.67,3,61.5,61.5,0,0,0,84.22-83.87Z"/></g></g></g></g></svg>