<!--Handcrafted by Saleh Riaz Qureshi - www.salehriaz.com - salehriazq@gmail.com - dribbble.com/salehriaz - behance.net/salehriaz - twitter.com/salehriazq - facebook.com/salehriazqureshi - instagram.com/salehriaz

Please use this SVG with attribution to the author i.e Saleh Riaz
-->

<svg xmlns="http://www.w3.org/2000/svg" viewBox="0 0 1280 1200.79"><defs><style>.cls-1{fill:#fff;}.cls-1,.cls-2{opacity:0.3;}.cls-2,.cls-3{fill:#66baf2;}.cls-3{opacity:0.62;}</style></defs><title>overlay_stars_1</title><g id="Layer_2" data-name="Layer 2"><g id="Layer_1-2" data-name="Layer 1"><g id="stars"><circle class="cls-1" cx="683.82" cy="963.26" r="4.06"/><circle class="cls-1" cx="1069.31" cy="912.12" r="4.06"/><circle class="cls-2" cx="294.27" cy="453.34" r="4.06"/><circle class="cls-1" cx="1275.94" cy="40.66" r="4.06"/><circle class="cls-1" cx="1215.06" cy="218.57" r="4.06"/><circle class="cls-1" cx="652.22" cy="28.49" r="4.06"/><circle class="cls-1" cx="777.57" cy="241.13" r="4.06"/><circle class="cls-1" cx="332.83" cy="4.06" r="4.06"/><circle class="cls-1" cx="4.06" cy="260.78" r="4.06"/><circle class="cls-1" cx="166.41" cy="107.25" r="4.06"/><circle class="cls-1" cx="1275.94" cy="954.96" r="4.06"/><circle class="cls-1" cx="1018.93" cy="77.2" r="4.06"/><circle class="cls-3" cx="484.62" cy="157.49" r="4.06"/><circle class="cls-1" cx="1259.71" cy="1196.73" r="4.06"/><circle class="cls-1" cx="80.59" cy="434.82" r="4.06"/><circle class="cls-2" cx="1241.44" cy="414.63" r="4.06"/><circle class="cls-1" cx="855.41" cy="111.31" r="4.06"/><circle class="cls-1" cx="64.36" cy="846.09" r="4.06"/><circle class="cls-1" cx="131.04" cy="1186.11" r="4.06"/><circle class="cls-1" cx="331.67" cy="1023.77" r="4.06"/><circle class="cls-2" cx="1179.77" cy="625.84" r="3.56"/><circle class="cls-1" cx="250.33" cy="701.86" r="3.56"/><circle class="cls-3" cx="349.59" cy="908.56" r="3.56"/><circle class="cls-1" cx="639.33" cy="647.86" r="3.56"/><circle class="cls-1" cx="824.33" cy="752.86" r="3.56"/></g></g></g></svg>